<svg width="40" height="40" viewBox="0 0 40 40" fill="none" xmlns="http://www.w3.org/2000/svg">
<path d="M40 20C40 31.0457 31.0457 40 20 40C8.9543 40 0 31.0457 0 20C0 8.9543 8.9543 0 20 0C31.0457 0 40 8.9543 40 20Z" fill="white"/>
<path fill-rule="evenodd" clip-rule="evenodd" d="M22.4526 3.87049C22.4284 3.94815 22.4066 4.01801 22.3944 4.04918C21.7751 5.64307 21.1784 7.28902 20.7785 8.93369C20.2322 11.1803 20.1576 13.499 20.1046 15.8353C20.6435 16.3212 21.1545 16.7501 21.5935 17.0664C21.9397 17.3158 22.2223 17.4813 22.428 17.5558C22.531 17.593 22.5919 17.5989 22.6203 17.5966C22.9741 17.0888 22.9959 16.4163 22.9973 15.6205C22.9973 15.5876 22.9974 15.5544 22.9974 15.521C22.9978 14.7859 22.9983 13.9489 23.4063 13.269C23.4189 13.2479 23.4283 13.2302 23.4406 13.2069C23.4501 13.1889 23.4613 13.1677 23.4771 13.1391C23.5055 13.0876 23.5473 13.016 23.6039 12.9535C23.6612 12.8901 23.7551 12.8121 23.8911 12.7921C24.031 12.7716 24.1554 12.821 24.2541 12.8903C24.5399 13.091 24.7639 13.3672 24.9498 13.6395C25.0654 13.8089 25.1784 13.9964 25.2816 14.1677C25.3389 14.2628 25.3932 14.3529 25.4433 14.4322C25.5571 14.6122 25.6728 14.793 25.7891 14.9748C26.1961 15.6108 26.6106 16.2585 26.9767 16.9278C27.2438 17.4161 27.4527 17.9246 27.6513 18.42C27.6696 18.4656 27.6878 18.511 27.7059 18.5563C27.8866 19.0081 28.0619 19.4466 28.2732 19.8692C28.2729 19.8685 28.2736 19.8697 28.2759 19.8735C28.2804 19.8808 28.2904 19.8973 28.3088 19.9264C28.3149 19.9361 28.3215 19.9466 28.3285 19.9576C28.3476 19.9879 28.3695 20.0225 28.39 20.0557C28.4176 20.1003 28.4477 20.1502 28.4699 20.1922C28.48 20.2113 28.4946 20.2402 28.5055 20.2709C28.51 20.2835 28.5214 20.3167 28.5245 20.3586L28.5245 20.3588C28.5259 20.3765 28.5385 20.5459 28.3774 20.638C28.1088 20.7915 27.8348 21.0987 27.5454 21.4724C27.4698 21.57 27.3926 21.6731 27.3147 21.7771C27.1127 22.0467 26.9062 22.3223 26.7118 22.5246C26.114 23.1467 25.5098 23.7575 24.8916 24.3496C25.4547 24.5413 26.0151 24.749 26.5725 24.974C28.7655 25.8591 31.3144 26.9574 33.1759 28.5622C33.414 28.7674 33.5451 28.9745 33.6775 29.2062C33.9368 29.6601 34.0133 30.0805 33.814 30.4221C33.6262 30.744 33.2545 30.8816 32.9168 30.9434C32.2241 31.0701 31.315 30.9414 30.869 30.8404C29.8586 30.6116 28.8528 30.2978 27.859 29.9876C27.3917 29.8418 26.9271 29.6968 26.4659 29.5619C25.0098 29.1359 23.5604 28.8004 22.0597 28.8004C21.9358 28.8004 21.8297 28.8546 21.7266 28.9813C21.6177 29.1153 21.5262 29.3163 21.4551 29.5628C21.3134 30.0537 21.2775 30.6351 21.2775 30.9581C21.2775 31.0618 21.2794 31.1668 21.2814 31.2726C21.2948 32.0119 21.3091 32.793 20.677 33.4738C20.5585 33.6013 20.4282 33.7049 20.3212 33.7901C20.2988 33.8079 20.2774 33.825 20.2573 33.8412C20.1342 33.9411 20.0458 34.0233 19.9806 34.1276C19.968 34.1478 19.9323 34.2007 19.8625 34.2361C19.7718 34.2822 19.6685 34.2764 19.5865 34.2306C19.5232 34.1952 19.4904 34.1463 19.4786 34.1274C19.4639 34.1039 19.455 34.0827 19.4502 34.07C19.4334 34.0262 19.4253 33.9774 19.4209 33.9488C19.4101 33.8788 19.4007 33.7796 19.3922 33.6673C19.375 33.4392 19.3594 33.1246 19.3463 32.8033C19.32 32.1618 19.3029 31.4746 19.3029 31.365C19.3029 30.4645 19.3058 29.5637 19.3113 28.6627C19.0685 28.8028 18.8221 28.9388 18.5717 29.0705C16.7668 30.0205 14.9662 30.6716 12.992 31.1181C12.4794 31.234 12.0953 31.1549 11.7476 30.9385C11.5057 30.7878 11.2764 30.5634 11.0399 30.332C10.9707 30.2643 10.9009 30.196 10.83 30.1287C8.88333 28.2829 6.98779 26.365 5.14839 24.4148C5.01442 24.2728 4.87637 24.1095 4.73884 23.9469L4.73386 23.941C4.5927 23.7741 4.45035 23.6059 4.30221 23.4462C4.00145 23.1221 3.70347 22.8635 3.39815 22.7414C3.38331 22.7354 3.35926 22.7252 3.33426 22.7099C3.32188 22.7023 3.30074 22.6883 3.27864 22.6668C3.25955 22.6483 3.21695 22.6024 3.19779 22.528C3.17413 22.4361 3.19718 22.3445 3.24862 22.2771C3.29019 22.2226 3.33959 22.1972 3.36099 22.1873C3.40501 22.1671 3.44533 22.1617 3.45759 22.16H3.4576C3.51339 22.1525 3.5893 22.1558 3.63853 22.1582C3.69481 22.161 3.74883 22.1645 3.79767 22.1677C3.86604 22.1721 3.92426 22.1759 3.96431 22.1759C4.53332 22.1759 5.10269 22.1753 5.67225 22.1747C6.81217 22.1734 7.95286 22.1721 9.09296 22.176C12.55 22.1876 15.9954 22.3652 19.3772 22.9566C19.411 20.8993 19.4543 18.8427 19.5032 16.7888C19.5082 16.5778 19.5128 16.3664 19.5175 16.1545C19.518 16.1319 19.5185 16.1092 19.519 16.0866C19.2724 15.8609 19.0228 15.6263 18.7742 15.3883C17.4783 14.1474 16.1633 12.7626 15.4563 12.018C15.2169 11.766 15.0473 11.5873 14.9715 11.5124C14.8578 11.3998 14.8568 11.2162 14.9694 11.1024C15.082 10.9887 15.2656 10.9877 15.3793 11.1003C15.4737 11.1937 15.664 11.3942 15.9258 11.6699C16.642 12.4242 17.8928 13.7417 19.1751 14.9696C19.296 15.0853 19.4168 15.1999 19.5369 15.3126C19.5911 13.1426 19.6942 10.9396 20.2152 8.79673C20.6245 7.11339 21.2327 5.43828 21.8541 3.83922L21.8541 3.83917C21.8543 3.83861 21.8563 3.83309 21.8608 3.81938C21.8652 3.80608 21.8706 3.78902 21.8772 3.76802C21.8821 3.75269 21.8876 3.73482 21.8937 3.71526C21.9036 3.68375 21.9148 3.64785 21.9264 3.61106C21.9649 3.48941 22.0144 3.33721 22.0673 3.19552C22.1174 3.06142 22.1801 2.91014 22.249 2.80661C22.2674 2.77892 22.2914 2.74673 22.3215 2.71692C22.349 2.68954 22.3989 2.64686 22.4714 2.62397C22.5569 2.59696 22.6554 2.60413 22.7416 2.65764C22.8148 2.70313 22.8541 2.76669 22.8743 2.80712C22.9459 2.9503 22.8879 3.12441 22.7447 3.196C22.7249 3.2059 22.7045 3.21332 22.6839 3.21838C22.6623 3.26542 22.6374 3.32598 22.6104 3.39839C22.5628 3.52571 22.5169 3.66643 22.4792 3.7858C22.4702 3.81409 22.4613 3.84278 22.4526 3.87049ZM20.0875 16.5953C20.0859 16.6643 20.0843 16.7334 20.0827 16.8025C20.0332 18.8874 19.9892 20.9745 19.9552 23.0619C21.4061 23.3369 22.8447 23.691 24.2668 24.1439C24.9548 23.4937 25.6268 22.817 26.2938 22.1229C26.4621 21.9477 26.634 21.7183 26.8258 21.4623C26.9087 21.3516 26.9954 21.2359 27.0871 21.1174C27.313 20.8257 27.5699 20.5177 27.8552 20.2939C27.85 20.2856 27.8448 20.2774 27.8397 20.2693C27.8324 20.2578 27.8252 20.2464 27.8182 20.2353L27.8166 20.2327C27.797 20.2016 27.7693 20.1577 27.7547 20.1285C27.532 19.683 27.3477 19.222 27.1685 18.7738C27.15 18.7276 27.1316 18.6816 27.1132 18.6357C26.9145 18.1399 26.7168 17.6607 26.4681 17.206C26.1126 16.556 25.7125 15.9307 25.3074 15.2976C25.1894 15.1133 25.0711 14.9283 24.9533 14.7418C24.8889 14.64 24.8289 14.5402 24.7695 14.4413C24.674 14.2825 24.5798 14.1258 24.4709 13.9663C24.3193 13.7442 24.1623 13.5537 23.9873 13.4144C23.9864 13.416 23.9854 13.4177 23.9845 13.4194C23.9758 13.4352 23.9677 13.4504 23.9586 13.4675C23.9552 13.4739 23.9516 13.4806 23.9478 13.4878C23.935 13.5118 23.9198 13.5399 23.9034 13.5672C23.5796 14.1069 23.5784 14.7977 23.577 15.5955L23.577 15.6216C23.5756 16.3861 23.571 17.2605 23.0837 17.9453C22.9797 18.0916 22.8272 18.1609 22.6693 18.1742C22.523 18.1865 22.3717 18.1519 22.2307 18.1008C21.9473 17.9983 21.6119 17.7941 21.2546 17.5367C20.8988 17.2804 20.5026 16.9573 20.0875 16.5953ZM23.7783 24.5984C22.5143 24.2094 21.236 23.8981 19.9459 23.6503C19.9256 24.9761 19.9094 26.3019 19.8984 27.6273C21.2875 26.7384 22.5612 25.7124 23.7783 24.5984ZM19.8933 28.3153C19.8863 29.3322 19.8826 30.3489 19.8826 31.365C19.8826 31.4617 19.8993 32.1385 19.9255 32.7796C19.9336 32.9786 19.9426 33.1723 19.9522 33.3427C19.9588 33.3374 19.9653 33.3322 19.9718 33.3271C20.0766 33.2434 20.1661 33.1719 20.2522 33.0793C20.7157 32.5801 20.7094 32.0496 20.7004 31.2974C20.6991 31.1891 20.6978 31.0762 20.6978 30.9581C20.6978 30.6094 20.7351 29.967 20.8981 29.4021C20.9793 29.1206 21.098 28.8356 21.2768 28.6156C21.4615 28.3884 21.7208 28.2207 22.0597 28.2207C23.644 28.2207 25.1566 28.5748 26.6286 29.0055C27.1117 29.1468 27.5876 29.2954 28.0603 29.443C29.0416 29.7493 30.009 30.0513 30.997 30.275C31.417 30.3701 32.235 30.4787 32.8125 30.3731C33.11 30.3187 33.2591 30.2229 33.3133 30.13C33.356 30.0568 33.3954 29.8811 33.1741 29.4939C33.052 29.2802 32.9601 29.1415 32.7974 29.0013C31.0181 27.4674 28.5558 26.3996 26.3556 25.5115C25.7125 25.252 25.0651 25.0157 24.4137 24.8009C23.0152 26.1017 21.537 27.3003 19.8933 28.3153ZM19.3159 27.9878C19.327 26.5066 19.3448 25.0249 19.3678 23.5436C16.0044 22.9477 12.564 22.7673 9.09101 22.7557C7.9522 22.7518 6.81387 22.7531 5.6748 22.7544C5.26108 22.7548 4.84726 22.7553 4.43329 22.7555C4.53635 22.8516 4.63428 22.9518 4.72715 23.0519C4.8858 23.2229 5.03657 23.4012 5.17639 23.5665L5.17651 23.5667C5.31834 23.7344 5.44743 23.887 5.57011 24.017C7.40337 25.9607 9.29126 27.8708 11.2288 29.708C11.3217 29.7961 11.405 29.8774 11.4815 29.9522C11.7043 30.1697 11.8706 30.3322 12.054 30.4463C12.2655 30.578 12.4925 30.6367 12.8641 30.5527C14.7911 30.1168 16.5436 29.4829 18.3017 28.5575C18.647 28.3758 18.9848 28.1857 19.3159 27.9878Z" fill="black"/>
</svg>
